<svg xmlns="http://www.w3.org/2000/svg" width="1200" height="800" viewBox="0 0 1200 800">
  <defs>
    <linearGradient id="bg" x1="0" y1="0" x2="1" y2="1">
      <stop offset="0" stop-color="#e2e8f0"/>
      <stop offset="1" stop-color="#c7d2fe"/>
    </linearGradient>
    <linearGradient id="car" x1="0" y1="0" x2="1" y2="1">
      <stop offset="0" stop-color="#ff4d3d"/>
      <stop offset="1" stop-color="#ff8a2b"/>
    </linearGradient>
    <filter id="s" x="-20%" y="-20%" width="140%" height="140%">
      <feDropShadow dx="0" dy="18" stdDeviation="18" flood-color="#0b1220" flood-opacity="0.18"/>
    </filter>
  </defs>
  <rect width="1200" height="800" fill="url(#bg)"/>
  <path d="M0 640c180-40 320-35 470 10 150 50 290 50 430 0 170-55 260-45 300-30v180H0z" fill="#0b1220" opacity="0.10"/>
  <g filter="url(#s)" transform="translate(160 340)">
    <path d="M140 160c30-70 60-100 120-110 110-18 210-18 320 0 60 10 90 40 120 110l30 70H110z" fill="url(#car)"/>
    <rect x="110" y="230" width="690" height="110" rx="40" fill="#111827" opacity="0.75"/>
    <rect x="240" y="120" width="260" height="90" rx="26" fill="#ffffff" opacity="0.28"/>
    <rect x="520" y="120" width="190" height="90" rx="26" fill="#ffffff" opacity="0.22"/>
    <circle cx="250" cy="340" r="58" fill="#0b1220" opacity="0.85"/>
    <circle cx="250" cy="340" r="28" fill="#e5e7eb" opacity="0.85"/>
    <circle cx="660" cy="340" r="58" fill="#0b1220" opacity="0.85"/>
    <circle cx="660" cy="340" r="28" fill="#e5e7eb" opacity="0.85"/>
  </g>
</svg>

