<svg xmlns="http://www.w3.org/2000/svg" width="900" height="900" viewBox="0 0 900 900">
  <defs>
    <linearGradient id="bg" x1="0" y1="0" x2="1" y2="1">
      <stop offset="0" stop-color="#ffffff" stop-opacity="0.9"/>
      <stop offset="1" stop-color="#ffd7a6" stop-opacity="0.85"/>
    </linearGradient>
    <linearGradient id="hair" x1="0" y1="0" x2="1" y2="1">
      <stop offset="0" stop-color="#2b2d3a"/>
      <stop offset="1" stop-color="#111827"/>
    </linearGradient>
    <filter id="s" x="-20%" y="-20%" width="140%" height="140%">
      <feDropShadow dx="0" dy="16" stdDeviation="18" flood-color="#0b1220" flood-opacity="0.18"/>
    </filter>
  </defs>
  <rect width="900" height="900" rx="52" fill="url(#bg)"/>
  <g filter="url(#s)">
    <circle cx="450" cy="360" r="150" fill="#ffd7c2"/>
    <path d="M300 360c15-120 95-200 190-200s175 80 190 200c-35-35-90-60-190-60s-155 25-190 60Z" fill="url(#hair)"/>
    <path d="M230 780c30-150 150-230 220-245 0 0 10 45 80 45s80-45 80-45c70 15 190 95 220 245" fill="#0b1220" opacity="0.14"/>
    <path d="M330 520c26 40 68 62 120 62s94-22 120-62" stroke="#d97706" stroke-width="14" stroke-linecap="round" opacity="0.55"/>
    <circle cx="395" cy="380" r="16" fill="#1f2937" opacity="0.7"/>
    <circle cx="505" cy="380" r="16" fill="#1f2937" opacity="0.7"/>
  </g>
</svg>

